<?xml version="1.0" encoding="UTF-8"?>
<svg id="b" data-name="Layer 2" xmlns="http://www.w3.org/2000/svg" width="54.655" height="92.793" viewBox="0 0 54.655 92.793">
  <g id="c" data-name="Layer 1">
    <path d="M54.632,27.764c-.211-6.701-1.314-13.972-4.866-19.789-1.527-2.501-3.587-4.742-6.173-6.167C40.254-.032,36.445-.301,32.734.263c-6.626,1.007-12.647,4.643-17.296,9.376C4.463,20.813,1.731,36.652.476,51.654c-.172,2.061-.323,4.125-.472,6.188-.039.543.175.926.5,1.162.062.106.135.209.23.309,2.557,2.677,4.045,6.247,4.028,9.962-.018,3.957-1.432,7.825-.666,11.791.676,3.498,3.21,6.044,6.078,7.943,2.755,1.825,6.458,4.291,9.919,3.692,1.814-.314,3.116-1.526,4.151-2.975,1.217-1.704,2.25-3.565,3.354-5.344l7.029-11.327c4.555-7.342,9.324-14.593,13.613-22.094,1.97-3.445,3.75-7.046,4.902-10.854,1.207-3.989,1.62-8.187,1.489-12.343Z" fill="currentColor" events="visiblePainted" />
  </g>
</svg>