<?xml version="1.0" encoding="UTF-8"?>
<svg id="b" data-name="Layer 2" xmlns="http://www.w3.org/2000/svg" width="52.144" height="70.99" viewBox="0 0 52.144 70.99">
  <g id="c" data-name="Layer 1">
    <path d="M51.909,68.29c-3.404-4.418-7.94-7.538-12.511-10.636-4.509-3.056-9.068-6.285-11.985-11.003-1.362-2.203-2.32-4.684-2.385-7.298-.066-2.662.822-5.195,1.822-7.626,1.964-4.775,4.402-9.633,2.806-14.901-.797-2.633-2.297-4.968-3.627-7.351-1.212-2.171-2.476-4.626-2.092-7.197.136-.913-.47-1.571-1.164-1.796-.689-.721-2.207-.711-2.634.55-5.268,15.55-10.716,31.053-15.785,46.669-1.218,3.751-2.343,7.538-3.162,11.398-.387,1.825-.699,3.663-.936,5.513-.204,1.592-.592,3.471.339,4.918.872,1.356,2.461,1.546,3.933,1.43,2.121-.167,4.237-.387,6.359-.541,4.08-.297,8.168-.499,12.257-.604,9.163-.237,18.333.015,27.47.731,1.057.083,1.978-1.371,1.295-2.257Z" fill="currentColor" pointer-events="visiblePainted" />
  </g>
</svg>