<?xml version="1.0" encoding="UTF-8"?>
<svg id="b" data-name="Layer 2" xmlns="http://www.w3.org/2000/svg" width="71.694" height="142.347" viewBox="0 0 71.694 142.347">
  <g id="c" data-name="Layer 1">
    <path d="M42.931,22.979c-3.648,7.196,2.849,15.091,5.252,22.793,2.683,8.603-.372,18.699-7.376,24.371-3.542,2.868-8.021,4.746-10.622,8.488-2.63,3.784-2.801,8.701-2.804,13.309-.005,6.503.213,13.309,3.377,18.99,1.815,3.259,4.571,6.087,5.449,9.713s-1.507,8.416-5.211,7.968l-.971.836c-3.008,2.986-8.002,2.394-11.997.98s-8.076-3.471-12.25-2.736-7.6,6.174-4.698,9.263c.948,1.01,2.315,1.497,3.637,1.912,11.818,3.712,24.551,4.472,36.728,2.193,1.23-.23,2.526-.527,3.423-1.4.939-.914,1.256-2.278,1.492-3.567,2.145-11.676,1.221-23.902-2.653-35.123-1.703-4.931-3.99-10.208-2.352-15.161,3.879-11.732,24.272-9.295,29.274-20.594,1.045-2.361,1.213-5.029.969-7.599-.692-7.288-4.734-14.191-10.752-18.361-3.414-2.366-7.957-4.777-7.845-8.93.047-1.734.971-3.306,1.869-4.789,2.589-4.279,5.178-8.558,7.766-12.838,1.731-2.861,3.515-6.315,2.179-9.381-1.559-3.578-6.791-4.224-10.077-2.118s-4.953,5.986-5.994,9.748-1.677,7.72-3.678,11.072l-2.135.96Z" fill="currentColor" events="visiblePainted" />
  </g>
</svg>