<?xml version="1.0" encoding="UTF-8"?>
<svg id="b" data-name="Layer 2" xmlns="http://www.w3.org/2000/svg" width="44.315" height="100.76" viewBox="0 0 44.315 100.76">
  <g id="c" data-name="Layer 1">
    <path d="M10.784,27.12C8.875,9.992,21.505,4.693,37.819.298c.837-.226,1.724-.421,2.564-.202,2.095.547,2.717,3.174,2.923,5.329,2.156,22.546.853,45.42-3.849,67.576-1.683,7.933-4.141,16.324-10.437,21.435-5.126,4.161-11.963,5.439-18.521,6.199-1.397.162-2.907.285-4.119-.43-1.173-.692-1.802-2.022-2.242-3.311-1.79-5.252-1.493-11.184.813-16.231,2.311-5.058,6.518-11.013,3.126-15.419-1.89-2.454-5.541-3.122-7.221-5.724-2.51-3.89.954-8.841,4.441-11.886s7.644-6.913,6.54-11.408l-1.054-9.106Z" fill="currentColor" events="visiblePainted" />
  </g>
</svg>