<?xml version="1.0" encoding="UTF-8"?>
<svg id="b" data-name="Layer 2" xmlns="http://www.w3.org/2000/svg" width="128.355" height="125.843" viewBox="0 0 128.355 125.843">
  <g id="c" data-name="Layer 1">
    <path d="M123.124,88.017l-35.885-3.225c-3.585-.322-6.969,1.701-8.384,5.01l-14.156,33.132c-1.823,4.266-8.039,3.707-9.072-.815l-8.022-35.125c-.801-3.509-3.771-6.103-7.356-6.425l-35.885-3.225c-4.62-.415-6.01-6.5-2.028-8.88l30.927-18.483c3.09-1.846,4.639-5.472,3.837-8.981L29.08,5.874c-1.033-4.522,4.325-7.724,7.818-4.673l27.136,23.702c2.711,2.368,6.638,2.721,9.728.874l30.927-18.483c3.982-2.38,8.683,1.726,6.86,5.992l-14.156,33.132c-1.414,3.31-.536,7.154,2.175,9.522l27.136,23.702c3.494,3.052,1.041,8.791-3.579,8.376Z" fill="currentColor" events="visiblePainted" />
  </g>
</svg>