<?xml version="1.0" encoding="UTF-8"?>
<svg id="b" data-name="Layer 2" xmlns="http://www.w3.org/2000/svg" width="49.597" height="99.421" viewBox="0 0 49.597 99.421">
  <g id="c" data-name="Layer 1">
    <path d="M0,52.172c5.599-11.327,6.999-24.716,3.706-36.928-1.173-4.351-2.634-9.752.723-12.757,1.525-1.366,3.665-1.767,5.697-2.016,5.431-.665,10.948-.626,16.37.113,3.259.445,6.61,1.199,9.197,3.229s4.184,5.646,2.982,8.707c-2.521,6.42-14.503,6.214-14.827,13.103-.141,3.004,2.391,5.484,5.058,6.874,4.315,2.25,9.352,2.775,13.726,4.907,4.375,2.132,8.208,6.994,6.584,11.582-1.545,4.365-6.863,5.835-11.415,6.683-3.981.742-7.962,1.483-11.942,2.225-1.252.233-2.556.489-3.568,1.262-2.918,2.23-1.55,7.048,1.027,9.666s6.118,4.431,7.757,7.717c2.017,4.043.48,8.922-1.514,12.976-1.532,3.116-3.414,6.204-6.285,8.156s-6.946,2.489-9.769.468c-2.468-1.767-3.416-4.932-4.206-7.862C6.236,78.918,3.171,67.557.105,56.197" fill="currentColor" events="visiblePainted" />
  </g>
</svg>