<?xml version="1.0" encoding="UTF-8"?>
<svg id="b" data-name="Layer 2" xmlns="http://www.w3.org/2000/svg" width="138.696" height="55.328" viewBox="0 0 138.696 55.328">
  <g id="c" data-name="Layer 1">
    <path d="M83.961,11.388c.879-6.121,7.561-9.586,13.639-10.724,13.097-2.451,27.823,1.905,35.766,12.603s7.117,27.645-3.214,36.058c-8.653,7.046-21.119,6.928-32.012,4.505-10.893-2.423-21.48-6.799-32.636-7.101-15.801-.429-31.168,7.379-46.892,5.764-7.014-.721-14.452-3.935-17.294-10.388-1.767-4.012-1.474-8.616-.752-12.939C2.411,18.122,8.59,6.072,19.617,4.131c7.515-1.323,14.856,2.489,21.718,5.825,6.956,3.382,14.255,6.433,21.966,7.028,7.712.595,15.977-1.605,21.166-7.341l-.506,1.745Z" fill="currentColor" events="visiblePainted" />
  </g>
</svg>