<?xml version="1.0" encoding="UTF-8"?>
<svg id="b" data-name="Layer 2" xmlns="http://www.w3.org/2000/svg" width="54.595" height="40.815" viewBox="0 0 54.595 40.815">
  <g id="c" data-name="Layer 1">
    <g>
      <g>
        <path d="M48.526,5.521c-6.717-3.709-14.721-4.227-22.387-3.904-5.058.213-10.212.785-14.798,2.929S2.777,10.65,1.733,15.604c-.613,2.911-.191,5.948.573,8.823,1.086,4.087,3.039,8.204,6.592,10.497,1.787,1.153,3.862,1.768,5.927,2.276,6.012,1.48,12.216,2.18,18.406,2.077,7.179-.12,15.452-2.109,18.494-8.612,1.422-3.041,1.401-6.531,1.352-9.888-.077-5.272-.481-11.258-4.564-14.594" fill="#fff" pointer-events="visiblePainted" />
        <path d="M49.283,4.226C44.436,1.602,39.032.469,33.566.144,28.049-.184,22.265.005,16.849,1.167c-4.929,1.057-9.759,3.302-13.067,7.212C.289,12.508-.621,17.507.384,22.759c.908,4.744,2.897,9.759,6.827,12.79,2.113,1.631,4.653,2.463,7.215,3.096,2.906.718,5.855,1.237,8.825,1.602,5.234.643,10.647.863,15.869-.007,4.155-.692,8.447-2.241,11.444-5.317,4.101-4.208,4.151-10.084,3.981-15.601-.156-5.06-.871-10.721-4.971-14.202-1.464-1.243-3.596.87-2.121,2.121,3.149,2.673,3.832,6.872,4.04,10.792.231,4.362.64,9.498-1.868,13.315-1.992,3.031-5.516,4.645-8.922,5.504-4.218,1.063-8.63,1.062-12.946.804-5.137-.306-10.522-1.025-15.4-2.731-4.337-1.516-6.813-5.186-8.17-9.416-1.468-4.572-1.973-9.49.745-13.691,2.397-3.705,6.399-6.018,10.557-7.222,5.227-1.513,10.919-1.696,16.329-1.532,5.514.167,11.054,1.099,15.952,3.75,1.698.919,3.214-1.67,1.514-2.59h0Z" events="visiblePainted" />
      </g>
      <circle cx="29.514" cy="19.423" r="17.886" stroke="#000" stroke-miterlimit="10" stroke-width="1.403" pointer-events="visiblePainted" />
    </g>
  </g>
</svg>