<?xml version="1.0" encoding="UTF-8"?>
<svg id="b" data-name="Layer 2" xmlns="http://www.w3.org/2000/svg" width="106.206" height="40.947" viewBox="0 0 106.206 40.947">
  <g id="c" data-name="Layer 1">
    <g>
      <g>
        <g>
          <path d="M48.526,5.521c-6.717-3.709-14.721-4.227-22.387-3.904-5.058.213-10.212.785-14.798,2.929S2.777,10.65,1.733,15.604c-.613,2.911-.191,5.948.573,8.823,1.086,4.087,3.039,8.204,6.592,10.497,1.787,1.153,3.862,1.768,5.927,2.276,6.012,1.48,12.216,2.18,18.406,2.077,7.179-.12,15.452-2.109,18.494-8.612,1.422-3.041,1.401-6.531,1.352-9.888-.077-5.272-.481-11.258-4.564-14.594" fill="#fff" pointer-events="visiblePainted" />
          <path d="M49.283,4.226C44.436,1.602,39.032.469,33.566.144,28.049-.184,22.265.005,16.849,1.167c-4.929,1.057-9.759,3.302-13.067,7.212C.289,12.508-.621,17.507.384,22.759c.908,4.744,2.897,9.759,6.827,12.79,2.113,1.631,4.653,2.463,7.215,3.096,2.906.718,5.855,1.237,8.825,1.602,5.234.643,10.647.863,15.869-.007,4.155-.692,8.447-2.241,11.444-5.317,4.101-4.208,4.151-10.084,3.981-15.601-.156-5.06-.871-10.721-4.971-14.202-1.464-1.243-3.596.87-2.121,2.121,3.149,2.673,3.832,6.872,4.04,10.792.231,4.362.64,9.498-1.868,13.315-1.992,3.031-5.516,4.645-8.922,5.504-4.218,1.063-8.63,1.062-12.946.804-5.137-.306-10.522-1.025-15.4-2.731-4.337-1.516-6.813-5.186-8.17-9.416-1.468-4.572-1.973-9.49.745-13.691,2.397-3.705,6.399-6.018,10.557-7.222,5.227-1.513,10.919-1.696,16.329-1.532,5.514.167,11.054,1.099,15.952,3.75,1.698.919,3.214-1.67,1.514-2.59h0Z" events="visiblePainted" />
        </g>
        <circle cx="29.514" cy="19.423" r="17.886" stroke="#000" stroke-miterlimit="10" stroke-width="1.403" pointer-events="visiblePainted" />
      </g>
      <g>
        <g>
          <path d="M57.66,5.675c6.717-3.709,14.721-4.227,22.387-3.904,5.058.213,10.212.785,14.798,2.929s8.564,6.103,9.608,11.056c.613,2.911.191,5.948-.573,8.823-1.086,4.087-3.039,8.204-6.592,10.497-1.787,1.153-3.862,1.768-5.927,2.276-6.012,1.48-12.216,2.18-18.406,2.077-7.179-.12-15.452-2.109-18.494-8.612-1.422-3.041-1.401-6.531-1.352-9.888.077-5.272.481-11.258,4.564-14.594" fill="#fff" pointer-events="visiblePainted" />
          <path d="M58.417,6.97c4.303-2.329,9.131-3.351,13.984-3.659,4.89-.31,9.99-.2,14.823.647,4.435.777,8.807,2.378,12.052,5.607,3.435,3.418,4.537,7.825,3.632,12.55-.799,4.175-2.435,8.896-6.059,11.453-1.945,1.372-4.298,1.967-6.582,2.505-2.572.606-5.181,1.08-7.806,1.385-4.624.536-9.457.806-14.082.125-3.605-.531-7.444-1.647-10.177-4.178-3.808-3.528-3.698-8.747-3.572-13.562.115-4.404.513-9.398,4.103-12.446,1.474-1.251-.657-3.364-2.121-2.121-3.604,3.059-4.593,7.856-4.886,12.359-.322,4.951-.638,10.72,2.07,15.108,4.962,8.041,16.244,8.57,24.633,8.07,2.985-.178,5.963-.54,8.906-1.071,2.719-.49,5.512-1.042,8.088-2.065,4.837-1.921,7.727-6.037,9.348-10.844,1.714-5.083,2.264-10.754-.451-15.589-2.398-4.268-6.601-7.202-11.133-8.837C87.412.324,80.889.068,74.807.209c-6.195.144-12.405,1.195-17.904,4.171-1.698.919-.186,3.511,1.514,2.59h0Z" events="visiblePainted" />
        </g>
        <circle cx="76.672" cy="19.577" r="17.886" stroke="#000" stroke-miterlimit="10" stroke-width="1.403" pointer-events="visiblePainted" />
      </g>
    </g>
  </g>
</svg>