<?xml version="1.0" encoding="UTF-8"?>
<svg id="b" data-name="Layer 2" xmlns="http://www.w3.org/2000/svg" width="250.084" height="66.207" viewBox="0 0 250.084 66.207">
  <g id="c" data-name="Layer 1">
    <g>
      <path d="M249.403,8.461c-.007.044-.01.066-.01.098.092.443-.056.955-.353,1.336-.125.23-.249.46-.374.69-1.468,3.362-3.268,6.58-5.109,9.77-1.313,2.228-2.954,4.258-4.61,6.24-2.453,3.021-4.979,5.982-8.016,8.437-2.012,1.699-3.933,3.515-5.979,5.173-2.96,2.114-5.92,4.227-8.852,6.395-1.967,1.674-4.277,2.849-6.276,4.491-1.722,1.331-3.951,1.722-5.632,3.113-2.024,1.629-4.589,2.246-6.707,3.717-1.445.956-3.105,1.446-4.708,2.043-2.614,1.306-5.519,1.782-8.279,2.673-5.018,1.545-10.29,2.12-15.501,2.56-1.904.096-3.784.3-5.679.488-1.888.049-3.77.022-5.657-.119-1.268-.08-2.525-.29-3.782-.532-1.006-.019-2.017-.12-3.037-.375-1.213-.203-2.41-.486-3.603-.79-1.21-.162-2.427-.343-3.604-.695-2.887-.593-5.766-1.356-8.508-2.438-1.548-.746-3.183-1.338-4.568-2.358-.076-.038-.142-.08-.205-.112-.325-.189-.668-.371-.942-.629-.154-.15-.283-.318-.367-.511-.212-.036-.404-.173-.475-.392-.109-.301.02-.617.192-.862.141-.277.278-.564.416-.851.042-.193.113-.395.241-.584.022-.028.045-.057.07-.075.144-.3.276-.606.42-.905-.003-.01-.006-.019,0-.032l-.01.003c-.055-.329.039-.654.161-.957.099-.243.227-.432.389-.611.134-.233.256-.473.387-.716.08-.173.17-.35.25-.524.131-.274.225-.568.359-.833.544-1.135,1.193-2.21,1.87-3.262,1.299-2.045,2.703-4.028,4.194-5.936,3.155-3.997,6.671-7.724,10.455-11.116,4.044-3.625,8.38-6.904,12.917-9.89,4.292-2.833,8.801-5.358,13.432-7.607,4.621-2.246,9.376-4.21,14.24-5.873,4.88-1.678,9.897-3.002,14.972-3.987,5.195-1.003,10.483-1.499,15.783-1.601,2.748-.056,5.509.052,8.242.305,2.699.244,5.404.633,8.063,1.206,2.536.55,5.049,1.222,7.488,2.151,1.155.443,2.293.934,3.41,1.485.558.291,1.119.592,1.658.921.258.147.498.3.74.463.192.137.397.281.535.478.213.299.173.69-.04.939Z" fill="#fff" stroke="#000" stroke-miterlimit="10" pointer-events="visiblePainted" />
      <path d="M119.981,56.701c-.034.024-.051.036-.072.057-.223.348-.667.579-1.132.627-.241.065-.483.131-.724.196-3.271,1.193-6.688,2.071-10.115,2.904-2.414.564-4.937.781-7.44.957-3.763.316-7.539.545-11.355.106-2.576-.244-5.162-.351-7.736-.644-3.537-.607-7.073-1.215-10.624-1.769-2.527-.23-4.975-1.01-7.504-1.282-2.124-.288-4-1.521-6.133-1.743-2.539-.297-4.808-1.608-7.311-2.07-1.676-.345-3.204-1.135-4.761-1.818-2.756-.898-5.18-2.527-7.769-3.791-4.66-2.346-8.869-5.488-12.945-8.676-1.447-1.207-2.947-2.328-4.448-3.469-1.404-1.227-2.754-2.498-4.033-3.846-.869-.896-1.645-1.87-2.4-2.864-.719-.682-1.388-1.421-1.961-2.266-.749-.94-1.433-1.919-2.101-2.911-.773-.911-1.539-1.839-2.164-2.85-1.71-2.306-3.302-4.718-4.586-7.244-.636-1.513-1.437-2.985-1.775-4.566-.03-.075-.051-.146-.076-.209-.112-.338-.243-.685-.273-1.033-.014-.199.003-.394.068-.575-.13-.164-.18-.381-.089-.57.118-.267.418-.385.704-.429.284-.085.572-.179.86-.272.157-.096.341-.18.557-.216.035-.003.07-.007.1-.002.301-.097.597-.207.898-.305.004-.008.008-.016.021-.02l-.009-.004c.176-.249.457-.397.744-.511.231-.091.448-.128.684-.135.25-.061.496-.135.75-.204.172-.059.353-.113.525-.172.275-.09.536-.217.807-.298,1.14-.37,2.315-.632,3.496-.86,2.284-.454,4.604-.8,6.938-1.038,4.912-.479,9.91-.542,14.884-.211,5.315.354,10.615,1.126,15.87,2.221,4.976,1.031,9.908,2.405,14.748,4.038,4.831,1.629,9.574,3.529,14.199,5.697,4.647,2.168,9.161,4.656,13.495,7.402,4.433,2.814,8.602,6.017,12.521,9.484,2.035,1.795,3.97,3.704,5.791,5.689,1.802,1.956,3.513,4.01,5.07,6.151,1.483,2.045,2.869,4.154,4.033,6.378.549,1.056,1.055,2.131,1.505,3.231.215.56.426,1.128.602,1.699.091.267.165.526.235.792.05.217.104.446.076.665-.041.335-.327.561-.645.579Z" fill="#fff" stroke="#000" stroke-miterlimit="10" stroke-width=".952" pointer-events="visiblePainted" />
      <g>
        <path d="M185.192,55.287c-.115-.036-.231-.072-.346-.109-5.767-1.862-10.843-5.848-13.886-11.111-1.736-3.002-2.884-6.33-3.231-9.789-.336-3.364-.056-6.808.957-10.043.199-.637.422-1.267.666-1.888-1.045.685-2.094,1.367-3.159,2.024-2.716,1.818-5.286,3.847-7.888,5.821-2.637,1.91-5.283,3.804-7.761,5.92-1.91,1.514-3.871,2.975-5.552,4.751-1.494,1.537-2.791,3.253-4.229,4.839-1.523,1.62-3.068,3.218-4.467,4.947-1.104,1.373-2.323,2.659-3.317,4.118-.196.278-.388.645-.724.77-.031.012-.063.021-.093.027.075.043.149.082.223.116,4.449,2.135,9.235,3.372,14.007,4.563.3.036.602.072.903.105,1.473.155,2.953.253,4.433.314,1.466.062,2.931.056,4.398.026,3.786-.091,7.551-.445,11.244-.998.018-.002.036-.006.054-.008h.01c4.45-.701,8.837-1.706,13.165-2.951,1.541-.453,3.073-.935,4.593-1.444ZM243.817,8.908c.031-.04.059-.083.089-.127-2.642-.613-5.362-.838-7.975-1.587-2.42-.529-4.949-.387-7.415-.575-2.896-.188-5.768.223-8.653.419-2.066.2-4.138.311-6.214.295-2.398.072-4.742.629-7.126.842-1.414.156-2.839.171-4.248.378-.146.03-.292.056-.439.076.067.11.123.226.172.348,1.641.692,3.254,1.506,4.708,2.539.772.548,1.515,1.12,2.231,1.74.669.577,1.287,1.206,1.904,1.84,1.003,1.032,1.842,2.224,2.638,3.417.401.601.746,1.242,1.095,1.873.331.597.627,1.239.883,1.872,1.108,2.743,1.808,5.642,1.878,8.335.024.938.047,1.877-.035,2.814-.086.978-.215,1.941-.383,2.908-.081.468-.184.931-.302,1.389,4.175-3.481,8.807-6.777,12.93-10.207,2.232-1.69,4.008-4.183,5.744-6.258,3.13-3.911,6.042-7.969,8.518-12.332ZM248.527,8.657c.092.441-.058.951-.352,1.333-.127.227-.254.456-.379.684-1.472,3.368-3.278,6.583-5.119,9.76-1.324,2.231-2.961,4.257-4.623,6.242-2.455,3.01-4.992,5.974-8.027,8.415-2.016,1.7-3.94,3.515-5.991,5.169-2.967,2.105-5.93,4.216-8.858,6.377-1.974,1.67-4.287,2.847-6.29,4.479-1.72,1.328-3.949,1.723-5.636,3.114-2.022,1.621-4.596,2.234-6.713,3.706-1.447.946-3.106,1.43-4.71,2.032-2.612,1.3-5.519,1.769-8.282,2.655.043-.012.087-.025.13-.037-5.067,1.568-10.377,2.142-15.643,2.573-1.898.095-3.783.298-5.675.478-1.884.051-3.775.018-5.653-.121-1.276-.087-2.531-.296-3.781-.541-1.011-.02-2.021-.122-3.036-.379-1.215-.206-2.411-.492-3.602-.798-1.216-.161-2.426-.351-3.607-.7-2.887-.598-5.761-1.368-8.506-2.449-1.545-.753-3.173-1.346-4.565-2.37-.067-.038-.135-.076-.201-.115-.321-.187-.664-.374-.939-.628-.158-.147-.282-.32-.365-.509-.212-.036-.408-.171-.475-.393-.109-.304.018-.613.19-.863.144-.28.28-.567.415-.854.04-.193.118-.387.24-.583.024-.025.048-.048.074-.072.146-.3.282-.606.424-.909-.002-.007-.003-.016-.003-.023-.003,0-.006,0-.007.002-.049-.33.035-.66.162-.964.098-.235.232-.43.395-.607.133-.235.256-.476.379-.717.088-.176.175-.349.259-.527.128-.273.227-.559.359-.832.547-1.127,1.198-2.199,1.871-3.256,1.3-2.043,2.709-4.025,4.211-5.925,3.157-3.994,6.676-7.711,10.472-11.102,4.05-3.619,8.387-6.886,12.927-9.868,4.304-2.826,8.809-5.348,13.443-7.589,4.625-2.236,9.389-4.191,14.251-5.848,4.889-1.667,9.903-2.989,14.977-3.96,5.206-.996,10.493-1.484,15.79-1.577,2.749-.047,5.504.061,8.241.316,2.703.252,5.405.643,8.059,1.222,2.542.555,5.048,1.236,7.482,2.162,1.161.441,2.301.936,3.41,1.495.564.286,1.122.584,1.662.913.249.151.495.307.734.474.194.136.401.274.538.469.212.301.175.697-.045.95,0,.032-.004.064-.008.096h0Z" pointer-events="visiblePainted" />
        <path d="M63.684,55.287c.115-.036.231-.072.346-.109,5.767-1.862,10.843-5.848,13.886-11.111,1.736-3.002,2.884-6.33,3.231-9.789.336-3.364.056-6.808-.957-10.043-.199-.637-.422-1.267-.666-1.888,1.045.685,2.094,1.367,3.159,2.024,2.716,1.818,5.286,3.847,7.888,5.821,2.637,1.91,5.283,3.804,7.761,5.92,1.91,1.514,3.871,2.975,5.552,4.751,1.494,1.537,2.791,3.253,4.229,4.839,1.523,1.62,3.068,3.218,4.467,4.947,1.104,1.373,2.323,2.659,3.317,4.118.196.278.388.645.724.77.031.012.063.021.093.027-.075.043-.149.082-.223.116-4.449,2.135-9.235,3.372-14.007,4.563-.3.036-.602.072-.903.105-1.473.155-2.953.253-4.433.314-1.466.062-2.931.056-4.398.026-3.786-.091-7.551-.445-11.244-.998-.018-.002-.036-.006-.054-.008h-.01c-4.45-.701-8.837-1.706-13.165-2.951-1.541-.453-3.073-.935-4.593-1.444ZM5.058,8.908c-.031-.04-.059-.083-.089-.127,2.642-.613,5.362-.838,7.975-1.587,2.42-.529,4.949-.387,7.415-.575,2.896-.188,5.768.223,8.653.419,2.066.2,4.138.311,6.214.295,2.398.072,4.742.629,7.126.842,1.414.156,2.839.171,4.248.378.146.03.292.056.439.076-.067.11-.123.226-.172.348-1.641.692-3.254,1.506-4.708,2.539-.772.548-1.515,1.12-2.231,1.74-.669.577-1.287,1.206-1.904,1.84-1.003,1.032-1.842,2.224-2.638,3.417-.401.601-.746,1.242-1.095,1.873-.331.597-.627,1.239-.883,1.872-1.108,2.743-1.808,5.642-1.878,8.335-.024.938-.047,1.877.035,2.814.086.978.215,1.941.383,2.908.081.468.184.931.302,1.389-4.175-3.481-8.807-6.777-12.93-10.207-2.232-1.69-4.008-4.183-5.744-6.258-3.13-3.911-6.042-7.969-8.518-12.332ZM.349,8.657c-.092.441.058.951.352,1.333.127.227.254.456.379.684,1.472,3.368,3.278,6.583,5.119,9.76,1.324,2.231,2.961,4.257,4.623,6.242,2.455,3.01,4.992,5.974,8.027,8.415,2.016,1.7,3.94,3.515,5.991,5.169,2.967,2.105,5.93,4.216,8.858,6.377,1.974,1.67,4.287,2.847,6.29,4.479,1.72,1.328,3.949,1.723,5.636,3.114,2.022,1.621,4.596,2.234,6.713,3.706,1.447.946,3.106,1.43,4.71,2.032,2.612,1.3,5.519,1.769,8.282,2.655-.043-.012-.087-.025-.13-.037,5.067,1.568,10.377,2.142,15.643,2.573,1.898.095,3.783.298,5.675.478,1.884.051,3.775.018,5.653-.121,1.276-.087,2.531-.296,3.781-.541,1.011-.02,2.021-.122,3.036-.379,1.215-.206,2.411-.492,3.602-.798,1.216-.161,2.426-.351,3.607-.7,2.887-.598,5.761-1.368,8.506-2.449,1.545-.753,3.173-1.346,4.565-2.37.067-.038.135-.076.201-.115.321-.187.664-.374.939-.628.158-.147.282-.32.365-.509.212-.036.408-.171.475-.393.109-.304-.018-.613-.19-.863-.144-.28-.28-.567-.415-.854-.04-.193-.118-.387-.24-.583-.024-.025-.048-.048-.074-.072-.146-.3-.282-.606-.424-.909.002-.007.003-.016.003-.023.003,0,.006,0,.007.002.049-.33-.035-.66-.162-.964-.098-.235-.232-.43-.395-.607-.133-.235-.256-.476-.379-.717-.088-.176-.175-.349-.259-.527-.128-.273-.227-.559-.359-.832-.547-1.127-1.198-2.199-1.871-3.256-1.3-2.043-2.709-4.025-4.211-5.925-3.157-3.994-6.676-7.711-10.472-11.102-4.05-3.619-8.387-6.886-12.927-9.868-4.304-2.826-8.809-5.348-13.443-7.589-4.625-2.236-9.389-4.191-14.251-5.848-4.889-1.667-9.903-2.989-14.977-3.96-5.206-.996-10.493-1.484-15.79-1.577-2.749-.047-5.504.061-8.241.316-2.703.252-5.405.643-8.059,1.222-2.542.555-5.048,1.236-7.482,2.162-1.161.441-2.301.936-3.41,1.495-.564.286-1.122.584-1.662.913-.249.151-.495.307-.734.474-.194.136-.401.274-.538.469-.212.301-.175.697.045.95,0,.032.004.064.008.096h0Z" pointer-events="visiblePainted" />
      </g>
    </g>
  </g>
</svg>