<?xml version="1.0" encoding="UTF-8"?>
<svg id="b" data-name="Layer 2" xmlns="http://www.w3.org/2000/svg" width="128.813" height="51.849" viewBox="0 0 128.813 51.849">
  <g id="c" data-name="Layer 1">
    <g>
      <path d="M127.973,21.471c-.019.039-.029.058-.039.087-.045.435-.336.858-.726,1.116-.185.173-.37.345-.555.518-2.372,2.63-5.012,5.026-7.681,7.382-1.89,1.638-4.029,2.993-6.168,4.299-3.193,2.013-6.436,3.948-10.009,5.26-2.388.936-4.726,2.009-7.134,2.896-3.399,1.024-6.798,2.047-10.186,3.129-2.339.927-4.85,1.291-7.209,2.179-2.007.688-4.211.358-6.198,1.114-2.379.869-4.964.641-7.384,1.335-1.636.43-3.336.366-5.016.418-2.835.39-5.698-.072-8.547-.108-5.158-.135-10.267-1.237-15.278-2.445-1.812-.501-3.633-.895-5.464-1.309-1.783-.539-3.537-1.146-5.263-1.859-1.163-.466-2.279-1.047-3.385-1.657-.936-.328-1.854-.733-2.733-1.284-1.076-.562-2.113-1.191-3.141-1.839-1.085-.523-2.171-1.065-3.17-1.752-2.528-1.436-4.999-3.027-7.246-4.868-1.229-1.163-2.585-2.211-3.58-3.576-.059-.059-.109-.117-.159-.166-.248-.273-.516-.547-.696-.868-.1-.185-.171-.379-.192-.583-.188-.099-.327-.284-.329-.506-.013-.31.201-.56.435-.732.214-.211.428-.432.642-.652.097-.164.223-.327.398-.461.029-.019.059-.038.088-.048.224-.23.438-.47.661-.701,0-.01,0-.019.01-.029h-.01c.046-.319.23-.588.434-.829.165-.192.341-.326.546-.44.195-.172.38-.355.574-.537.126-.134.263-.269.389-.403.204-.211.379-.451.583-.653.846-.873,1.772-1.658,2.718-2.414,1.823-1.474,3.725-2.86,5.688-4.148,4.14-2.691,8.538-5.022,13.088-6.965,4.862-2.075,9.896-3.742,15.03-5.079,4.86-1.272,9.832-2.194,14.835-2.825,4.994-.631,10.03-.962,15.079-.984,5.068-.031,10.16.307,15.205.973,5.163.687,10.263,1.866,15.257,3.412,2.591.798,5.144,1.751,7.629,2.829,2.456,1.058,4.874,2.252,7.195,3.599,2.212,1.288,4.367,2.683,6.376,4.289.95.764,1.871,1.566,2.753,2.416.436.44.873.889,1.28,1.357.198.215.377.429.556.654.139.185.288.38.359.603.111.34-.043.687-.316.849Z" fill="#fff" stroke="#000" stroke-miterlimit="10" stroke-width=".975" pointer-events="visiblePainted" />
      <path d="M54.827,44.869c-.097-.068-.196-.137-.292-.207-4.855-3.484-8.436-8.705-9.735-14.472-.742-3.29-.836-6.698-.14-9.979.677-3.191,1.956-6.266,3.859-8.923.374-.524.769-1.033,1.181-1.528-1.182.307-2.365.61-3.557.885-3.082.833-6.088,1.904-9.109,2.915-3.035.942-6.073,1.866-9.018,3.045-2.237.802-4.505,1.539-6.604,2.652-1.853.951-3.574,2.127-5.391,3.14-1.905,1.018-3.824,2.009-5.646,3.166-1.44.92-2.961,1.725-4.323,2.759-.266.195-.554.473-.906.484-.033.001-.065,0-.095-.004.057.063.115.121.175.175,3.54,3.329,7.659,5.938,11.78,8.499.271.125.543.251.815.375,1.335.595,2.693,1.141,4.061,1.653,1.355.508,2.73.954,4.114,1.378,3.575,1.082,7.207,1.915,10.831,2.545.018.004.036.006.053.009l.009.002c4.377.727,8.784,1.155,13.207,1.344,1.578.059,3.155.088,4.73.088ZM123.444,20.342c.041-.028.08-.058.12-.089-2.295-1.375-4.777-2.419-7.005-3.911-2.112-1.23-4.523-1.878-6.779-2.81-2.659-1.064-5.471-1.571-8.232-2.279-1.995-.452-3.969-.988-5.91-1.641-2.268-.671-4.629-.882-6.926-1.42-1.371-.292-2.711-.717-4.092-.961-.146-.017-.29-.039-.434-.065.03.122.048.246.058.373,1.334,1.141,2.605,2.384,3.663,3.779.562.741,1.089,1.494,1.578,2.284.457.736.85,1.503,1.241,2.274.635,1.256,1.07,2.608,1.464,3.948.199.675.332,1.369.474,2.056.134.65.222,1.33.275,1.99.229,2.859.03,5.735-.699,8.229-.254.868-.509,1.738-.863,2.572-.369.871-.774,1.716-1.216,2.552-.214.405-.447.798-.692,1.182,4.939-1.91,10.252-3.51,15.127-5.389,2.59-.864,4.99-2.606,7.228-3.976,4.087-2.627,8.012-5.455,11.619-8.697ZM127.931,21.562c-.044.433-.335.855-.723,1.115-.186.17-.372.341-.557.511-2.373,2.638-5.014,5.034-7.676,7.383-1.899,1.64-4.031,2.996-6.173,4.306-3.188,2.007-6.44,3.947-10.004,5.253-2.391.939-4.729,2.013-7.139,2.901-3.401,1.019-6.8,2.045-10.181,3.127-2.342.925-4.857,1.294-7.215,2.175-2.004.689-4.209.367-6.2,1.123-2.373.866-4.965.636-7.383,1.335-1.635.423-3.333.357-5.013.415-2.831.389-5.693-.075-8.544-.112.044.002.089.004.133.006-5.211-.12-10.356-1.228-15.418-2.453-1.807-.497-3.633-.891-5.459-1.308-1.78-.533-3.543-1.145-5.262-1.851-1.17-.472-2.284-1.05-3.384-1.66-.941-.33-1.858-.734-2.733-1.282-1.078-.563-2.115-1.194-3.141-1.841-1.092-.522-2.17-1.068-3.174-1.752-2.529-1.437-4.995-3.029-7.249-4.866-1.226-1.166-2.577-2.212-3.579-3.581-.051-.055-.104-.111-.154-.168-.246-.27-.512-.547-.695-.865-.105-.183-.17-.381-.192-.58-.188-.098-.332-.283-.329-.507-.013-.312.198-.557.433-.734.217-.213.43-.435.64-.656.095-.164.225-.319.397-.461.03-.015.06-.03.09-.043.225-.231.443-.47.666-.704,0-.007.002-.016.003-.022-.003,0-.006,0-.007,0,.052-.318.227-.595.436-.835.161-.186.344-.324.549-.435.194-.175.38-.358.566-.541.134-.134.267-.267.398-.404.2-.212.377-.443.582-.653.845-.866,1.772-1.65,2.713-2.413,1.821-1.475,3.726-2.861,5.694-4.142,4.136-2.694,8.531-5.023,13.088-6.967,4.863-2.075,9.891-3.739,15.024-5.079,4.867-1.27,9.832-2.198,14.836-2.829,4.994-.629,10.035-.957,15.079-.982,5.074-.026,10.162.304,15.203.975,5.172.688,10.27,1.867,15.262,3.412,2.59.803,5.14,1.75,7.629,2.826,2.458,1.063,4.876,2.254,7.191,3.601,2.219,1.291,4.366,2.688,6.374,4.287.958.762,1.88,1.567,2.754,2.422.444.436.879.882,1.288,1.35.189.216.373.434.548.661.142.185.295.375.365.596.11.342-.041.694-.323.858-.01.029-.023.057-.035.085h0Z" pointer-events="visiblePainted" />
    </g>
  </g>
</svg>