<?xml version="1.0" encoding="UTF-8"?>
<svg id="b" data-name="Layer 2" xmlns="http://www.w3.org/2000/svg" width="137.044" height="105.347" viewBox="0 0 137.044 105.347">
  <g id="c" data-name="Layer 1">
    <path d="M65.326,31.811c.428-10.604.855-21.208,1.283-31.811,9.627,12.294,18.035,25.542,25.061,39.487.955,1.894,1.965,3.895,3.75,5.042,1.709,1.099,3.842,1.229,5.867,1.39,12.409.988,24.622,4.386,35.758,9.95-16.551,7.46-35.564,6.041-53.651,4.476,5.358,15.001,10.717,30.002,16.075,45.003-9.128-5.229-15.684-14.732-17.331-25.122-.268-1.693-.531-3.614-1.924-4.612-1.189-.852-2.794-.719-4.246-.55-25.323,2.95-50.645,5.9-75.968,8.849,20.291-6.315,40.582-12.63,60.873-18.945-6.981-10.524-16.613-19.276-27.756-25.219,9.525-3.187,20.431-1.953,29.003,3.283.945-4.381,1.89-8.762,2.836-13.142l1.467.691c-3.044,3.141-4.909,7.399-5.153,11.765l1.123-3.071c1.24-4.633,2.221-9.334,2.937-14.076" fill="#ff1" events="visiblePainted" />
  </g>
</svg>